<svg width="61" height="62" viewBox="0 0 61 62" fill="none" xmlns="http://www.w3.org/2000/svg">
<path d="M39.8472 18.2845L27.9231 15.0895C23.2607 13.8402 19.2479 16.2733 17.9434 21.1419L14.9326 32.3783C13.6317 37.2332 15.8904 41.3467 20.5527 42.596L32.4768 45.7911C37.1392 47.0403 41.1382 44.6036 42.4391 39.7487L45.4499 28.5123C46.7544 23.6436 44.5095 19.5338 39.8472 18.2845Z" fill="#F5FAFC"/>
<g opacity="0.5" filter="url(#filter0_f_181_3356)">
<rect x="17.7056" y="36.8118" width="19.9202" height="19.8435" rx="9.92178" transform="rotate(-72.4886 17.7056 36.8118)" fill="#F5FAFC"/>
</g>
<g filter="url(#filter1_b_181_3356)">
<mask id="path-3-outside-1_181_3356" maskUnits="userSpaceOnUse" x="5" y="19.5496" width="35" height="35" fill="black">
<rect fill="white" x="5" y="19.5496" width="35" height="35"/>
<path d="M29.2669 20.5496H15.1997C9.69934 20.5496 6 24.4112 6 30.1549V43.4108C6 49.1383 9.69934 52.9999 15.1997 52.9999H29.2669C34.7672 52.9999 38.4503 49.1383 38.4503 43.4108V30.1549C38.4503 24.4112 34.7672 20.5496 29.2669 20.5496Z"/>
</mask>
<path d="M29.2669 20.5496H15.1997C9.69934 20.5496 6 24.4112 6 30.1549V43.4108C6 49.1383 9.69934 52.9999 15.1997 52.9999H29.2669C34.7672 52.9999 38.4503 49.1383 38.4503 43.4108V30.1549C38.4503 24.4112 34.7672 20.5496 29.2669 20.5496Z" fill="white"/>
<path d="M29.2669 21.5496C29.8192 21.5496 30.2669 21.1018 30.2669 20.5496C30.2669 19.9973 29.8192 19.5496 29.2669 19.5496V21.5496ZM29.2669 19.5496C28.7146 19.5496 28.2669 19.9973 28.2669 20.5496C28.2669 21.1018 28.7146 21.5496 29.2669 21.5496V19.5496ZM29.2669 19.5496H15.1997V21.5496H29.2669V19.5496ZM15.1997 19.5496C12.2067 19.5496 9.63577 20.6057 7.81504 22.5066C5.99789 24.4038 5 27.0662 5 30.1549H7C7 27.4998 7.85178 25.3596 9.25938 23.89C10.6634 22.4242 12.6923 21.5496 15.1997 21.5496V19.5496ZM5 30.1549V43.4108H7V30.1549H5ZM5 43.4108C5 46.4921 5.99834 49.1505 7.81546 51.0453C9.63607 52.9438 12.2068 53.9999 15.1997 53.9999V51.9999C12.6922 51.9999 10.6631 51.1252 9.25896 49.661C7.85133 48.1932 7 46.0571 7 43.4108H5ZM15.1997 53.9999H29.2669V51.9999H15.1997V53.9999ZM29.2669 53.9999C32.26 53.9999 34.8271 52.9436 36.6439 51.0444C38.4568 49.1492 39.4503 46.4908 39.4503 43.4108H37.4503C37.4503 46.0583 36.6023 48.1945 35.1986 49.6619C33.7987 51.1254 31.7741 51.9999 29.2669 51.9999V53.9999ZM39.4503 43.4108V30.1549H37.4503V43.4108H39.4503ZM39.4503 30.1549C39.4503 27.0675 38.4573 24.4051 36.6443 22.5075C34.8274 20.6059 32.26 19.5496 29.2669 19.5496V21.5496C31.7741 21.5496 33.7984 22.424 35.1982 23.8891C36.6019 25.3583 37.4503 27.4986 37.4503 30.1549H39.4503Z" fill="url(#paint0_linear_181_3356)" mask="url(#path-3-outside-1_181_3356)"/>
</g>
<g clip-path="url(#clip0_181_3356)" filter="url(#filter2_bd_181_3356)">
<path d="M12.6665 37.789C12.6665 37.255 12.6665 36.721 12.6665 36.187C12.6939 35.9895 12.7171 35.7912 12.749 35.5942C13.1116 33.3629 14.1276 31.4882 15.8194 29.9851C16.8984 29.0266 18.1346 28.3494 19.5296 27.9832C20.0722 27.8405 20.6336 27.7703 21.1868 27.6667C21.7208 27.6667 22.2548 27.6667 22.7887 27.6667C22.9862 27.6941 23.185 27.7169 23.3816 27.7493C25.9731 28.1798 28.0608 29.4439 29.5907 31.5798C31.05 33.6169 31.5922 35.9043 31.2192 38.3754C30.827 40.9729 29.5346 43.0565 27.3996 44.5878C25.3634 46.0484 23.0774 46.5842 20.6049 46.2217C18.3672 45.8934 16.4934 44.8523 14.9881 43.1595C14.0154 42.066 13.3346 40.8106 12.9684 39.3946C12.832 38.8688 12.765 38.3248 12.6665 37.789ZM21.4312 34.7888C21.4312 34.31 21.4271 33.8312 21.4335 33.3524C21.4357 33.201 21.3956 33.1344 21.2301 33.1358C20.4179 33.1422 19.6057 33.1399 18.7936 33.1371C18.6818 33.1367 18.6121 33.1663 18.5829 33.2849C18.3439 34.2526 18.2217 35.2362 18.1706 36.2308C18.1629 36.3794 18.2167 36.4346 18.3681 36.4337C19.3194 36.4291 20.2711 36.4287 21.2228 36.4342C21.3801 36.4351 21.4367 36.3845 21.4339 36.2249C21.4262 35.7465 21.4312 35.2672 21.4312 34.7888ZM22.5439 34.7875C22.5439 35.2604 22.5503 35.7333 22.5407 36.2057C22.537 36.3804 22.5949 36.436 22.7696 36.4351C23.6967 36.4282 24.6242 36.4323 25.5513 36.4319C25.8026 36.4319 25.814 36.4273 25.8008 36.1779C25.7497 35.2084 25.6288 34.2485 25.3972 33.3041C25.3639 33.1691 25.2909 33.1362 25.1642 33.1371C24.3643 33.1408 23.564 33.1435 22.7641 33.1353C22.5831 33.1335 22.5379 33.2019 22.5407 33.3697C22.5493 33.8422 22.5439 34.315 22.5439 34.7875ZM21.4312 39.1844C21.4312 38.6997 21.4298 38.2149 21.4321 37.7297C21.4326 37.6184 21.412 37.5427 21.2752 37.5432C20.2934 37.5455 19.3116 37.5455 18.3298 37.5437C18.2108 37.5437 18.1647 37.5984 18.1725 37.7106C18.1834 37.8674 18.1957 38.0243 18.2044 38.1816C18.25 39.0184 18.3818 39.8424 18.5751 40.6574C18.6052 40.7832 18.6595 40.8402 18.7963 40.8393C19.6085 40.8347 20.4206 40.8343 21.2328 40.8393C21.3824 40.8402 21.4357 40.7891 21.4339 40.6387C21.4271 40.1544 21.4312 39.6696 21.4312 39.1844ZM22.5439 39.1712C22.5439 39.6623 22.5457 40.153 22.5425 40.6441C22.5416 40.7645 22.5658 40.8393 22.7108 40.8388C23.5412 40.8352 24.3716 40.8357 25.2015 40.8384C25.3124 40.8388 25.3657 40.7923 25.3917 40.6879C25.6311 39.7202 25.7529 38.7366 25.8039 37.742C25.8117 37.5906 25.7529 37.5405 25.6038 37.5414C24.652 37.5459 23.7008 37.5464 22.7491 37.5409C22.5886 37.54 22.5379 37.5966 22.5407 37.753C22.5484 38.2259 22.5439 38.6983 22.5439 39.1712ZM28.5656 36.4314C29.0385 36.4314 29.5109 36.4296 29.9838 36.4328C30.1069 36.4337 30.1794 36.4073 30.1644 36.2591C30.0591 35.2298 29.7877 34.2494 29.3271 33.3214C29.2619 33.19 29.1826 33.1349 29.033 33.1362C28.2756 33.1426 27.5177 33.1385 26.7602 33.1394C26.5441 33.1399 26.529 33.1563 26.5774 33.3738C26.7885 34.3223 26.8993 35.2836 26.9435 36.2531C26.9495 36.3849 26.9964 36.4351 27.1287 36.4337C27.608 36.4287 28.0868 36.4314 28.5656 36.4314ZM16.0784 40.837C16.4665 40.837 16.8541 40.8343 17.2422 40.8384C17.3826 40.8398 17.4451 40.8001 17.4096 40.646C17.1856 39.6751 17.0748 38.6896 17.0288 37.6955C17.0238 37.5888 16.9791 37.5437 16.8728 37.5437C15.9029 37.545 14.9334 37.545 13.9634 37.5432C13.8467 37.5432 13.7983 37.5879 13.8102 37.7078C13.9146 38.7494 14.1901 39.7417 14.6602 40.6788C14.7213 40.801 14.803 40.8402 14.9329 40.8384C15.3151 40.8334 15.6967 40.837 16.0784 40.837ZM15.4199 36.4314C15.8865 36.4314 16.3534 36.4264 16.8199 36.4342C16.9791 36.4369 17.0256 36.3785 17.0324 36.2235C17.0767 35.2599 17.187 34.3046 17.3982 33.362C17.4433 33.1599 17.4278 33.139 17.2217 33.1385C16.4642 33.1371 15.7063 33.1417 14.9489 33.1349C14.792 33.1335 14.7104 33.1928 14.6424 33.3296C14.1846 34.2526 13.9174 35.228 13.8116 36.2508C13.797 36.3913 13.8522 36.4337 13.9835 36.4328C14.4623 36.4291 14.9411 36.4314 15.4199 36.4314ZM28.5656 37.5437C28.0927 37.5437 27.6203 37.5464 27.1474 37.5418C27.0156 37.5405 26.9508 37.5742 26.9435 37.7229C26.8984 38.686 26.7912 39.6418 26.581 40.5844C26.5272 40.8261 26.5386 40.8366 26.7785 40.8366C27.524 40.8375 28.2696 40.8325 29.0148 40.8402C29.1789 40.842 29.2647 40.7837 29.3354 40.6382C29.78 39.7239 30.0572 38.7649 30.1562 37.7521C30.1731 37.581 30.1224 37.5391 29.9651 37.5409C29.4991 37.5478 29.0321 37.5437 28.5656 37.5437ZM18.9614 32.0108C19.0699 32.0181 19.1287 32.0254 19.1871 32.0254C19.8597 32.0263 20.5328 32.0213 21.2055 32.029C21.3797 32.0313 21.4362 31.9752 21.4348 31.8001C21.428 30.8972 21.4316 29.9938 21.4312 29.0904C21.4312 29.0334 21.4243 28.9764 21.418 28.8674C20.0599 29.5191 19.5154 30.7371 18.9614 32.0108ZM24.9863 32.0117C24.9635 31.9369 24.9558 31.889 24.9352 31.8471C24.7346 31.4266 24.5513 30.9961 24.3246 30.5894C24.0401 30.0791 23.6862 29.6162 23.2174 29.2546C23.0222 29.1037 22.8175 28.9678 22.5617 28.9053C22.5534 28.9555 22.5448 28.9842 22.5448 29.0134C22.5439 29.9592 22.5461 30.9045 22.5416 31.8503C22.5407 32.0049 22.6177 32.0286 22.7459 32.0281C23.4308 32.0249 24.1158 32.0267 24.8007 32.0263C24.8541 32.0254 24.9074 32.0176 24.9863 32.0117ZM21.4143 45.0766C21.4225 45.0183 21.4303 44.9891 21.4303 44.9599C21.4312 44.0141 21.4289 43.0688 21.433 42.123C21.4339 41.9657 21.3509 41.9479 21.226 41.9483C20.541 41.9511 19.8561 41.9493 19.1712 41.9506C19.1151 41.9506 19.0585 41.9625 18.9746 41.9716C19.0676 42.195 19.1429 42.3925 19.23 42.5845C19.5551 43.3013 19.9514 43.9722 20.5246 44.5226C20.7745 44.762 21.0522 44.9635 21.4143 45.0766ZM25.0132 41.9638C24.9029 41.957 24.8445 41.9502 24.7857 41.9502C24.113 41.9493 23.4399 41.9547 22.7673 41.9465C22.5899 41.9442 22.5393 42.0067 22.5407 42.1782C22.5475 43.0811 22.5434 43.9845 22.5443 44.8878C22.5443 44.9448 22.553 45.0014 22.5612 45.1067C23.9183 44.4569 24.4582 43.2357 25.0132 41.9638ZM15.4943 32.0258C15.5882 32.0258 15.6521 32.0258 15.7164 32.0258C16.3105 32.0258 16.9047 32.0181 17.4985 32.0304C17.695 32.0345 17.7899 31.9702 17.8537 31.7837C18.1419 30.9428 18.5204 30.1457 19.0435 29.4224C19.0585 29.4014 19.0654 29.3741 19.0809 29.3399C18.0188 29.6016 16.0356 31.0778 15.4943 32.0258ZM28.4589 32.0112C28.1178 31.2109 25.6202 29.3586 24.8883 29.3622C25.4551 30.1315 25.8477 30.9815 26.1564 31.8722C26.2002 31.9989 26.2855 32.0286 26.4082 32.0277C27.0384 32.024 27.6691 32.0263 28.2993 32.0254C28.3508 32.0254 28.4023 32.0163 28.4589 32.0112ZM15.5317 41.9497C15.5225 41.9684 15.5139 41.9871 15.5048 42.0058C16.446 43.2097 17.6271 44.0916 19.0654 44.6512C19.0676 44.617 19.0731 44.6019 19.0681 44.5951C18.514 43.8262 18.1191 42.9771 17.8099 42.0856C17.7712 41.9739 17.6909 41.9479 17.5833 41.9488C17.2258 41.952 16.8683 41.9497 16.5103 41.9497C16.1847 41.9497 15.8582 41.9497 15.5317 41.9497ZM28.5027 41.9611C28.3896 41.9552 28.3312 41.9497 28.2724 41.9497C27.6599 41.9493 27.0475 41.9543 26.4351 41.9456C26.2686 41.9433 26.1888 41.9971 26.1332 42.1577C25.8391 43.009 25.4615 43.8208 24.9307 44.5545C24.9156 44.575 24.9097 44.6024 24.8855 44.6603C26.3471 44.0907 27.5263 43.2083 28.5027 41.9611Z" fill="url(#paint1_linear_181_3356)" fill-opacity="0.8"/>
</g>
<defs>
<filter id="filter0_f_181_3356" x="0.23877" y="0.341064" width="59.8511" height="59.915" filterUnits="userSpaceOnUse" color-interpolation-filters="sRGB">
<feFlood flood-opacity="0" result="BackgroundImageFix"/>
<feBlend mode="normal" in="SourceGraphic" in2="BackgroundImageFix" result="shape"/>
<feGaussianBlur stdDeviation="10" result="effect1_foregroundBlur_181_3356"/>
</filter>
<filter id="filter1_b_181_3356" x="-19" y="-4.45044" width="82.4502" height="82.4504" filterUnits="userSpaceOnUse" color-interpolation-filters="sRGB">
<feFlood flood-opacity="0" result="BackgroundImageFix"/>
<feGaussianBlur in="BackgroundImage" stdDeviation="12"/>
<feComposite in2="SourceAlpha" operator="in" result="effect1_backgroundBlur_181_3356"/>
<feBlend mode="normal" in="SourceGraphic" in2="effect1_backgroundBlur_181_3356" result="shape"/>
</filter>
<filter id="filter2_bd_181_3356" x="-2.3335" y="12.6667" width="48.6665" height="48.6643" filterUnits="userSpaceOnUse" color-interpolation-filters="sRGB">
<feFlood flood-opacity="0" result="BackgroundImageFix"/>
<feGaussianBlur in="BackgroundImage" stdDeviation="7.5"/>
<feComposite in2="SourceAlpha" operator="in" result="effect1_backgroundBlur_181_3356"/>
<feColorMatrix in="SourceAlpha" type="matrix" values="0 0 0 0 0 0 0 0 0 0 0 0 0 0 0 0 0 0 127 0" result="hardAlpha"/>
<feOffset dx="5" dy="5"/>
<feGaussianBlur stdDeviation="5"/>
<feColorMatrix type="matrix" values="0 0 0 0 0.104531 0 0 0 0 0.350168 0 0 0 0 0.929167 0 0 0 0.6 0"/>
<feBlend mode="normal" in2="effect1_backgroundBlur_181_3356" result="effect2_dropShadow_181_3356"/>
<feBlend mode="normal" in="SourceGraphic" in2="effect2_dropShadow_181_3356" result="shape"/>
</filter>
<linearGradient id="paint0_linear_181_3356" x1="11.1656" y1="24.3301" x2="31.8654" y2="49.9674" gradientUnits="userSpaceOnUse">
<stop stop-color="white" stop-opacity="0.25"/>
<stop offset="1" stop-color="white" stop-opacity="0"/>
</linearGradient>
<linearGradient id="paint1_linear_181_3356" x1="27.5383" y1="12.5818" x2="31.0167" y2="45.3748" gradientUnits="userSpaceOnUse">
<stop offset="0.270833" stop-color="#CF74FF"/>
<stop offset="0.984375" stop-color="#1B59ED"/>
</linearGradient>
<clipPath id="clip0_181_3356">
<rect width="18.6667" height="18.6644" fill="white" transform="translate(12.6665 27.6667)"/>
</clipPath>
</defs>
</svg>
